# xmcd CD database generated by RipIT
#
# Track frame offsets:
# 150
# 17940
# 31412
# 44477
# 63172
# 85275
# 107167
# 121777
# 137702
# 155187
# 212072
#
# Disc length: 2964 seconds
#
# Revision: 0
# Processed by: cddbd v1.5.2PL0 Copyright (c) Steve Scherf et al.
# Submitted via: RipIT 3.6.0 www.suwald.com/ripit/ripit.html on 2007-12-22 at 11:46
#
DISCID=990b920b
DTITLE=Sasha Smith - Straight Up
DYEAR=1995
DGENRE=Blues
TTITLE0=Nine finger boogie
TTITLE1=Good as gone
TTITLE2=Happy hand
TTITLE3=Stu's blues
TTITLE4=Joan's blues
TTITLE5=Tribute to James Booker
TTITLE6=New tipitina
TTITLE7=Mine now
TTITLE8=Jamming at the blue note
TTITLE9=Straight up
TTITLE10=Dave's blues
EXTD=
EXTT0=
EXTT1=
EXTT2=
EXTT3=
EXTT4=
EXTT5=
EXTT6=
EXTT7=
EXTT8=
EXTT9=
EXTT10=
PLAYORDER=
